# xmcd
# 
# Track frame offsets:
#     150
#     27330
#     41223
#     78988
#     100970
#     111683
#     139445
#     161163
# 
# Disc length: 2655
# 
# Revision: 0
# Processed by: cddbd v1.5.2PL0 Copyright (c) Steve Scherf et al.
# Submitted via: BonkEnc v1.0.8
# 
DISCID=740a5d08
DTITLE=Lonnie Liston Smith - Live!
DYEAR=1977
DGENRE=Fusion
TTITLE0=Sorceress
TTITLE1=Prelude
TTITLE2=Expansions
TTITLE3=My Love
TTITLE4=Visions Of A New World (Phase One)
TTITLE5=Visions Of A New World (Phase Two)
TTITLE6=Watercolors
TTITLE7=Sunset
EXTD=YEAR: 1977
EXTT0=
EXTT1=
EXTT2=
EXTT3=
EXTT4=
EXTT5=
EXTT6=
EXTT7=
PLAYORDER=
